<svg xmlns="http://www.w3.org/2000/svg" viewBox="0 0 128 128" width="128" height="128">
  <defs>
    <linearGradient id="bgGradient" x1="0%" y1="0%" x2="100%" y2="100%">
      <stop offset="0%" stop-color="#2563EB"/>
      <stop offset="100%" stop-color="#7C3AED"/>
    </linearGradient>
  </defs>

  <!-- Rounded Background -->
  <rect width="128" height="128" rx="28" fill="url(#bgGradient)"/>

  <!-- Document / Letter Base -->
  <rect x="32" y="28" width="64" height="72" rx="8" fill="#FFFFFF" fill-opacity="0.95"/>

  <!-- Letter Lines -->
  <rect x="42" y="42" width="44" height="6" rx="3" fill="#2563EB"/>
  <rect x="42" y="54" width="34" height="5" rx="2.5" fill="#94A3B8"/>
  <rect x="42" y="64" width="38" height="5" rx="2.5" fill="#94A3B8"/>

  <!-- AI Sparkle Icon -->
  <path d="M82 72L84.5 78.5L91 81L84.5 83.5L82 90L79.5 83.5L73 81L79.5 78.5L82 72Z" fill="#7C3AED"/>
  <path d="M44 76L45.5 80L49.5 81.5L45.5 83L44 87L42.5 83L38.5 81.5L42.5 80L44 76Z" fill="#3B82F6"/>
</svg>
